<svg xmlns="http://www.w3.org/2000/svg" viewBox="0 0 200 200"><defs><style>.cls-1{fill:#fff;}</style></defs><g id="mZAR_-_2" data-name="mZAR - 2"><path class="cls-1" d="M111.35,63.28c0,5.34-2.91,8.54-9.13,8.54H92V54.94h10.27C108.44,54.94,111.35,58.25,111.35,63.28Z"/><path class="cls-1" d="M100,6.15A97.37,97.37,0,0,0,32.71,173.9l40.05-40a3.52,3.52,0,0,1,5,0l2,2,.13-.13,20.6,20.61a.49.49,0,0,0,.69,0l20.21-20.21.17.16.62-.6a5.53,5.53,0,0,1,7.85,0l37.72,37.7A97.35,97.35,0,0,0,100,6.15Zm10.09,103.09L95.93,83.55H92v25.69H75.37v-68h27.84c16.66,0,25,9.58,25,21.42,0,8.52-4.65,16.57-15.13,19.68l15.72,26.95Z"/><path class="cls-1" d="M157.6,181.1a97.09,97.09,0,0,1-11.49,7.26l-19.43-19.43a.5.5,0,0,0-.7,0l-24.77,24.78a.5.5,0,0,1-.7,0L76.79,170a2.49,2.49,0,0,0-3.53,0L54.53,188.71A97.54,97.54,0,0,1,43,181.52l29.79-29.78a3.53,3.53,0,0,1,5,0l2,2,.14-.13,20.59,20.59a.5.5,0,0,0,.7,0L121.42,154l.16.17.62-.62a5.56,5.56,0,0,1,7.86,0L157.6,181.1Z"/></g></svg>